<svg width="200" height="100" viewBox="0 0 200 100" fill="none" xmlns="http://www.w3.org/2000/svg">
<path d="M106.496 20H175V80H106.496V20Z" fill="#FBFB0E"/>
<path d="M39.4344 71.7172C36.5116 71.7172 33.8721 71.1219 31.5159 69.9312C29.1895 68.7107 27.3553 66.9098 26.0132 64.5284C24.6711 62.147 24 59.2149 24 55.7321C24 52.2493 24.6711 49.2428 26.0132 46.7126C27.3851 44.1823 29.2492 42.2474 31.6054 40.9079C33.9914 39.5386 36.7054 38.854 39.7476 38.854C43.2669 38.854 45.9661 39.3451 47.845 40.3274C49.724 41.3098 50.6635 42.7684 50.6635 44.7033C50.6635 46.1916 50.2609 47.427 49.4556 48.4093C48.6503 49.3619 47.5468 49.8381 46.145 49.8381C44.952 49.8381 43.7889 49.6893 42.6555 49.3916C41.552 49.0642 40.2546 48.9005 38.7634 48.9005C36.8546 48.9005 35.3484 49.4512 34.2449 50.5526C33.1413 51.654 32.5896 53.0977 32.5896 54.8837C32.5896 56.64 33.1413 58.1135 34.2449 59.3042C35.3484 60.4651 36.8546 61.0456 38.7634 61.0456C39.7774 61.0456 40.702 60.9712 41.5371 60.8223C42.402 60.6437 43.2371 60.4651 44.0424 60.2865C44.8775 60.1079 45.7722 60.0186 46.7266 60.0186C48.3073 60.0186 49.4705 60.5395 50.2161 61.5814C50.9618 62.5935 51.3346 63.8586 51.3346 65.3767C51.3346 66.8949 50.7828 68.1302 49.6793 69.0828C48.5758 70.0056 47.1143 70.6753 45.295 71.0921C43.5055 71.5088 41.552 71.7172 39.4344 71.7172Z" fill="white"/>
<path d="M60.6001 71.6279C58.5124 71.6279 56.8123 70.8391 55.5 69.2614C54.1877 67.6837 53.5167 65.466 53.4869 62.6084L53.4421 52.294C53.4421 51.014 53.8298 50.0167 54.6053 49.3023C55.4106 48.5581 56.4992 48.186 57.8711 48.186C59.1834 48.186 60.2422 48.5581 61.0475 49.3023C61.8528 50.0167 62.2554 51.014 62.2554 52.294V61.626C62.2554 63.8586 63.1352 64.9749 64.8949 64.9749C65.7598 64.9749 66.3414 64.6623 66.6397 64.0372C66.9379 63.3823 67.087 62.5488 67.087 61.5367V52.294C67.087 51.133 67.4897 50.1656 68.2949 49.3916C69.1002 48.5879 70.1441 48.186 71.4266 48.186C72.7687 48.186 73.7976 48.5879 74.5134 49.3916C75.2591 50.1656 75.6319 51.133 75.6319 52.294V66.9395C75.6319 68.3684 75.3038 69.5144 74.6477 70.3777C74.0213 71.2112 72.9924 71.6279 71.5608 71.6279C70.159 71.6279 69.0555 71.2112 68.2502 70.3777C67.4748 69.5144 67.087 68.3684 67.087 66.9395V66.1805H66.2818C66.2818 67.907 65.7598 69.2465 64.716 70.1991C63.7019 71.1516 62.33 71.6279 60.6001 71.6279Z" fill="white"/>
<path d="M77.7726 60.0186C77.7726 57.667 78.2349 55.5981 79.1595 53.8121C80.1139 52.026 81.456 50.627 83.1859 49.6149C84.9455 48.6028 87.0333 48.0967 89.4491 48.0967C91.3281 48.0967 93.0132 48.4391 94.5044 49.1237C96.0255 49.8084 97.2185 50.7312 98.0834 51.8921C98.9484 53.0233 99.3808 54.2735 99.3808 55.6428C99.3808 57.0716 98.9633 58.0837 98.1282 58.6791C97.2931 59.2744 96.0553 59.5721 94.415 59.5721H85.0201C85.0201 60.346 85.3184 60.986 85.9149 61.4921C86.5412 61.9981 87.585 62.2512 89.0465 62.2512C89.7921 62.2512 90.4781 62.1767 91.1044 62.0279C91.7605 61.8791 92.4167 61.7451 93.0728 61.626C93.7588 61.4772 94.5193 61.4028 95.3544 61.4028C96.5474 61.4028 97.5317 61.8344 98.3071 62.6977C99.0826 63.5312 99.4703 64.6921 99.4703 66.1805C99.4703 67.9367 98.5606 69.306 96.7413 70.2884C94.9518 71.2707 92.5956 71.7619 89.6728 71.7619C87.6149 71.7619 85.6763 71.36 83.8569 70.5563C82.0674 69.7526 80.606 68.4874 79.4727 66.7609C78.3393 65.0047 77.7726 62.7572 77.7726 60.0186ZM92.2676 58.0986C92.7149 58.0986 92.8641 57.8902 92.7149 57.4735C92.5956 57.0567 92.2377 56.6251 91.6412 56.1786C91.0447 55.7321 90.1798 55.5088 89.0465 55.5088C87.7342 55.5088 86.7499 55.7916 86.0938 56.3572C85.4675 56.9228 85.1543 57.5033 85.1543 58.0986H92.2676Z" fill="white"/>
<path d="M107.003 72.4763C105.243 72.4763 103.871 72.0149 102.887 71.0921C101.903 70.1395 101.41 68.8893 101.41 67.3414C101.41 65.7637 101.917 64.4837 102.932 63.5014C103.946 62.5191 105.303 62.0279 107.003 62.0279C108.673 62.0279 110 62.5191 110.984 63.5014C111.998 64.454 112.505 65.7191 112.505 67.2967C112.505 68.8446 112.028 70.0949 111.074 71.0474C110.119 72 108.762 72.4763 107.003 72.4763Z" fill="white"/>
<path d="M126.681 71.9405C124.474 71.9405 122.431 71.5535 120.552 70.7795C118.673 69.9758 117.167 68.7553 116.034 67.1181C114.93 65.4512 114.379 63.3377 114.379 60.7777C114.379 59.0214 114.796 57.6819 115.631 56.7591C116.496 55.8363 117.659 55.3749 119.121 55.3749C120.612 55.3749 121.76 55.7767 122.566 56.5805C123.401 57.3544 123.818 58.5302 123.818 60.1079C123.818 61.5367 124.072 62.5191 124.579 63.0549C125.116 63.5609 125.757 63.814 126.503 63.814C127.248 63.814 127.86 63.5609 128.337 63.0549C128.814 62.5191 129.053 61.5367 129.053 60.1079V57.027C129.053 55.5088 129.246 54.2586 129.634 53.2763C130.052 52.294 130.529 51.5349 131.066 50.9991C131.603 50.4335 132.08 50.0614 132.497 49.8828L132.274 49.0344H121.045C119.613 49.0344 118.465 48.6177 117.6 47.7842C116.765 46.9209 116.317 45.7302 116.258 44.2121C116.228 42.7237 116.66 41.5181 117.555 40.5953C118.45 39.6726 119.613 39.2112 121.045 39.2112H133.929C135.331 39.2112 136.39 39.6874 137.105 40.64C137.851 41.5628 138.224 42.7684 138.224 44.2567V60.7777C138.224 63.3377 137.717 65.4512 136.703 67.1181C135.718 68.7553 134.346 69.9758 132.587 70.7795C130.857 71.5535 128.889 71.9405 126.681 71.9405Z" fill="white"/>
<path d="M154.823 71.7619C153.153 71.7619 151.467 71.5981 149.767 71.2707C148.097 70.9135 146.546 70.4074 145.115 69.7526C143.713 69.0679 142.58 68.2493 141.715 67.2967C140.85 66.3144 140.417 65.1833 140.417 63.9033C140.417 62.266 140.939 60.9563 141.983 59.974C143.027 58.9916 144.25 58.5302 145.652 58.5898C146.755 58.6195 147.859 58.8577 148.962 59.3042C150.066 59.7209 151.184 60.1377 152.317 60.5544C153.481 60.9712 154.644 61.1795 155.807 61.1795C156.97 61.1795 157.775 61.0307 158.223 60.733C158.67 60.4353 158.894 60.0335 158.894 59.5274C158.894 58.9321 158.581 58.4409 157.954 58.054C157.328 57.667 156.538 57.3693 155.583 57.1609L153.391 56.6251C151.124 56.0893 149.096 55.494 147.307 54.8391C145.517 54.1544 144.101 53.2614 143.057 52.16C142.043 51.0288 141.536 49.5256 141.536 47.6502C141.536 45.5963 142.102 43.9293 143.236 42.6493C144.369 41.3395 145.905 40.387 147.844 39.7916C149.782 39.1963 151.945 38.8986 154.331 38.8986C156.776 38.8986 158.924 39.1516 160.773 39.6577C162.622 40.1637 164.054 40.893 165.068 41.8456C166.111 42.7981 166.633 43.9591 166.633 45.3284C166.633 46.787 166.231 47.933 165.425 48.7665C164.65 49.5702 163.606 49.9721 162.294 49.9721C161.429 49.9721 160.519 49.8233 159.565 49.5256C158.64 49.2279 157.656 48.9451 156.612 48.6772C155.598 48.3795 154.51 48.2307 153.346 48.2307C152.303 48.2307 151.512 48.3944 150.975 48.7219C150.438 49.0195 150.17 49.4214 150.17 49.9274C150.17 50.5526 150.528 51.0139 151.244 51.3116C151.96 51.6093 153.138 51.9665 154.778 52.3833L157.283 52.9637C159.341 53.4698 161.146 54.08 162.697 54.7944C164.247 55.5088 165.455 56.4465 166.32 57.6074C167.185 58.7684 167.618 60.2865 167.618 62.1619C167.618 64.4242 167.081 66.2698 166.007 67.6986C164.933 69.0977 163.442 70.1246 161.533 70.7795C159.625 71.4344 157.388 71.7619 154.823 71.7619Z" fill="white"/>
</svg>
